<svg xmlns="http://www.w3.org/2000/svg" viewBox="0 0 1040 430" font-family="Helvetica,Arial,sans-serif">
<text x="520.0" y="34.0" font-size="23" fill="#1a4a7a" text-anchor="middle" font-weight="bold">Late in training the score scale inflates — the sigmoid's width must track it</text>
<text x="225.0" y="66.0" font-size="19" fill="#222" text-anchor="middle" font-weight="bold">Fixed raw τ</text>
<text x="225.0" y="88.0" font-size="15" fill="#b91c1c" text-anchor="middle" font-weight="normal">sigmoid → step: band gradient vanishes</text>
<path d="M 50.0 330.0 L 50.0 328.0 L 56.2 327.5 L 62.3 327.0 L 68.5 326.3 L 74.7 325.6 L 80.8 324.7 L 87.0 323.8 L 93.2 322.7 L 99.3 321.4 L 105.5 320.1 L 111.7 318.5 L 117.8 316.9 L 124.0 315.1 L 130.2 313.1 L 136.3 311.1 L 142.5 308.9 L 148.7 306.7 L 154.8 304.4 L 161.0 302.1 L 167.2 299.8 L 173.3 297.5 L 179.5 295.3 L 185.7 293.2 L 191.8 291.2 L 198.0 289.4 L 204.2 287.8 L 210.3 286.5 L 216.5 285.4 L 222.7 284.6 L 228.8 284.2 L 235.0 284.0 L 241.2 284.2 L 247.3 284.6 L 253.5 285.4 L 259.7 286.5 L 265.8 287.8 L 272.0 289.4 L 278.2 291.2 L 284.3 293.2 L 290.5 295.3 L 296.7 297.5 L 302.8 299.8 L 309.0 302.1 L 315.2 304.4 L 321.3 306.7 L 327.5 308.9 L 333.7 311.1 L 339.8 313.1 L 346.0 315.1 L 352.2 316.9 L 358.3 318.5 L 364.5 320.1 L 370.7 321.4 L 376.8 322.7 L 383.0 323.8 L 389.2 324.7 L 395.3 325.6 L 401.5 326.3 L 407.7 327.0 L 413.8 327.5 L 420.0 328.0 L 420.0 330.0 Z" fill="#1a4a7a" fill-opacity="0.14" stroke="none"/>
<rect x="201.7" y="120.0" width="66.6" height="210.0" rx="0" fill="#fdecef" stroke="none" stroke-width="1.5" fill-opacity="1.0"/>
<line x1="50.0" y1="330.0" x2="420.0" y2="330.0" stroke="#333" stroke-width="2"/>
<line x1="235.0" y1="114.0" x2="235.0" y2="336.0" stroke="#b91c1c" stroke-width="1.6" stroke-dasharray="4,3"/>
<text x="235.0" y="350.0" font-size="13" fill="#b91c1c" text-anchor="middle" font-weight="normal">t (band edge)</text>
<text x="235.0" y="370.0" font-size="12" fill="#6b7280" text-anchor="middle" font-weight="normal">negative scores (inflated spread)</text>
<path d="M 50.0 330.0 L 53.1 330.0 L 56.2 330.0 L 59.2 330.0 L 62.3 330.0 L 65.4 330.0 L 68.5 330.0 L 71.6 330.0 L 74.7 330.0 L 77.8 330.0 L 80.8 330.0 L 83.9 330.0 L 87.0 330.0 L 90.1 330.0 L 93.2 330.0 L 96.2 329.9 L 99.3 329.9 L 102.4 329.9 L 105.5 329.9 L 108.6 329.9 L 111.7 329.9 L 114.8 329.8 L 117.8 329.8 L 120.9 329.8 L 124.0 329.7 L 127.1 329.7 L 130.2 329.6 L 133.2 329.5 L 136.3 329.4 L 139.4 329.3 L 142.5 329.2 L 145.6 329.0 L 148.7 328.8 L 151.8 328.6 L 154.8 328.3 L 157.9 328.0 L 161.0 327.6 L 164.1 327.1 L 167.2 326.5 L 170.2 325.8 L 173.3 325.0 L 176.4 324.0 L 179.5 322.8 L 182.6 321.4 L 185.7 319.7 L 188.8 317.7 L 191.8 315.4 L 194.9 312.7 L 198.0 309.5 L 201.1 305.8 L 204.2 301.5 L 207.2 296.6 L 210.3 291.1 L 213.4 284.9 L 216.5 278.0 L 219.6 270.4 L 222.7 262.2 L 225.8 253.4 L 228.8 244.2 L 231.9 234.7 L 235.0 225.0 L 238.1 215.3 L 241.2 205.8 L 244.2 196.6 L 247.3 187.8 L 250.4 179.6 L 253.5 172.0 L 256.6 165.1 L 259.7 158.9 L 262.8 153.4 L 265.8 148.5 L 268.9 144.2 L 272.0 140.5 L 275.1 137.3 L 278.2 134.6 L 281.2 132.3 L 284.3 130.3 L 287.4 128.6 L 290.5 127.2 L 293.6 126.0 L 296.7 125.0 L 299.8 124.2 L 302.8 123.5 L 305.9 122.9 L 309.0 122.4 L 312.1 122.0 L 315.2 121.7 L 318.2 121.4 L 321.3 121.2 L 324.4 121.0 L 327.5 120.8 L 330.6 120.7 L 333.7 120.6 L 336.8 120.5 L 339.8 120.4 L 342.9 120.3 L 346.0 120.3 L 349.1 120.2 L 352.2 120.2 L 355.2 120.2 L 358.3 120.1 L 361.4 120.1 L 364.5 120.1 L 367.6 120.1 L 370.7 120.1 L 373.8 120.1 L 376.8 120.0 L 379.9 120.0 L 383.0 120.0 L 386.1 120.0 L 389.2 120.0 L 392.2 120.0 L 395.3 120.0 L 398.4 120.0 L 401.5 120.0 L 404.6 120.0 L 407.7 120.0 L 410.8 120.0 L 413.8 120.0 L 416.9 120.0 L 420.0 120.0" fill="none" stroke="#b91c1c" stroke-width="3"/>
<text x="44.0" y="124.0" font-size="12" fill="#6b7280" text-anchor="end" font-weight="normal">σ=1</text>
<text x="44.0" y="330.0" font-size="12" fill="#6b7280" text-anchor="end" font-weight="normal">σ=0</text>
<text x="235.0" y="108.0" font-size="14" fill="#b91c1c" text-anchor="middle" font-weight="bold">gradient zone — razor-thin</text>
<text x="276.3" y="215.0" font-size="13" fill="#b91c1c" text-anchor="start" font-weight="normal">saturated</text>
<text x="276.3" y="233.0" font-size="13" fill="#b91c1c" text-anchor="start" font-weight="normal" font-family="SFMono-Regular,Menlo,monospace">σ'≈0</text>
<text x="755.0" y="66.0" font-size="19" fill="#222" text-anchor="middle" font-weight="bold">Scale-aware  τ_eff = temperature × scale</text>
<text x="755.0" y="88.0" font-size="15" fill="#15803d" text-anchor="middle" font-weight="normal">constant sharpness in FPR units</text>
<path d="M 580.0 330.0 L 580.0 328.0 L 586.2 327.5 L 592.3 327.0 L 598.5 326.3 L 604.7 325.6 L 610.8 324.7 L 617.0 323.8 L 623.2 322.7 L 629.3 321.4 L 635.5 320.1 L 641.7 318.5 L 647.8 316.9 L 654.0 315.1 L 660.2 313.1 L 666.3 311.1 L 672.5 308.9 L 678.7 306.7 L 684.8 304.4 L 691.0 302.1 L 697.2 299.8 L 703.3 297.5 L 709.5 295.3 L 715.7 293.2 L 721.8 291.2 L 728.0 289.4 L 734.2 287.8 L 740.3 286.5 L 746.5 285.4 L 752.7 284.6 L 758.8 284.2 L 765.0 284.0 L 771.2 284.2 L 777.3 284.6 L 783.5 285.4 L 789.7 286.5 L 795.8 287.8 L 802.0 289.4 L 808.2 291.2 L 814.3 293.2 L 820.5 295.3 L 826.7 297.5 L 832.8 299.8 L 839.0 302.1 L 845.2 304.4 L 851.3 306.7 L 857.5 308.9 L 863.7 311.1 L 869.8 313.1 L 876.0 315.1 L 882.2 316.9 L 888.3 318.5 L 894.5 320.1 L 900.7 321.4 L 906.8 322.7 L 913.0 323.8 L 919.2 324.7 L 925.3 325.6 L 931.5 326.3 L 937.7 327.0 L 943.8 327.5 L 950.0 328.0 L 950.0 330.0 Z" fill="#1a4a7a" fill-opacity="0.14" stroke="none"/>
<rect x="646.6" y="120.0" width="236.8" height="210.0" rx="0" fill="#e4f0e6" stroke="none" stroke-width="1.5" fill-opacity="1.0"/>
<line x1="580.0" y1="330.0" x2="950.0" y2="330.0" stroke="#333" stroke-width="2"/>
<line x1="765.0" y1="114.0" x2="765.0" y2="336.0" stroke="#b91c1c" stroke-width="1.6" stroke-dasharray="4,3"/>
<text x="765.0" y="350.0" font-size="13" fill="#b91c1c" text-anchor="middle" font-weight="normal">t (band edge)</text>
<text x="765.0" y="370.0" font-size="12" fill="#6b7280" text-anchor="middle" font-weight="normal">negative scores (inflated spread)</text>
<path d="M 580.0 321.2 L 583.1 320.7 L 586.2 320.2 L 589.2 319.7 L 592.3 319.2 L 595.4 318.7 L 598.5 318.1 L 601.6 317.5 L 604.7 316.9 L 607.8 316.2 L 610.8 315.5 L 613.9 314.8 L 617.0 314.1 L 620.1 313.3 L 623.2 312.5 L 626.2 311.6 L 629.3 310.7 L 632.4 309.8 L 635.5 308.8 L 638.6 307.8 L 641.7 306.7 L 644.8 305.6 L 647.8 304.5 L 650.9 303.3 L 654.0 302.1 L 657.1 300.8 L 660.2 299.5 L 663.2 298.1 L 666.3 296.6 L 669.4 295.1 L 672.5 293.6 L 675.6 292.0 L 678.7 290.4 L 681.8 288.7 L 684.8 286.9 L 687.9 285.1 L 691.0 283.2 L 694.1 281.3 L 697.2 279.3 L 700.2 277.3 L 703.3 275.2 L 706.4 273.1 L 709.5 270.9 L 712.6 268.7 L 715.7 266.4 L 718.8 264.0 L 721.8 261.7 L 724.9 259.2 L 728.0 256.8 L 731.1 254.3 L 734.2 251.7 L 737.2 249.2 L 740.3 246.6 L 743.4 243.9 L 746.5 241.3 L 749.6 238.6 L 752.7 235.9 L 755.8 233.2 L 758.8 230.5 L 761.9 227.7 L 765.0 225.0 L 768.1 222.3 L 771.2 219.5 L 774.2 216.8 L 777.3 214.1 L 780.4 211.4 L 783.5 208.7 L 786.6 206.1 L 789.7 203.4 L 792.8 200.8 L 795.8 198.3 L 798.9 195.7 L 802.0 193.2 L 805.1 190.8 L 808.2 188.3 L 811.2 186.0 L 814.3 183.6 L 817.4 181.3 L 820.5 179.1 L 823.6 176.9 L 826.7 174.8 L 829.8 172.7 L 832.8 170.7 L 835.9 168.7 L 839.0 166.8 L 842.1 164.9 L 845.2 163.1 L 848.2 161.3 L 851.3 159.6 L 854.4 158.0 L 857.5 156.4 L 860.6 154.9 L 863.7 153.4 L 866.8 151.9 L 869.8 150.5 L 872.9 149.2 L 876.0 147.9 L 879.1 146.7 L 882.2 145.5 L 885.2 144.4 L 888.3 143.3 L 891.4 142.2 L 894.5 141.2 L 897.6 140.2 L 900.7 139.3 L 903.8 138.4 L 906.8 137.5 L 909.9 136.7 L 913.0 135.9 L 916.1 135.2 L 919.2 134.5 L 922.2 133.8 L 925.3 133.1 L 928.4 132.5 L 931.5 131.9 L 934.6 131.3 L 937.7 130.8 L 940.8 130.3 L 943.8 129.8 L 946.9 129.3 L 950.0 128.8" fill="none" stroke="#15803d" stroke-width="3"/>
<text x="574.0" y="124.0" font-size="12" fill="#6b7280" text-anchor="end" font-weight="normal">σ=1</text>
<text x="574.0" y="330.0" font-size="12" fill="#6b7280" text-anchor="end" font-weight="normal">σ=0</text>
<text x="765.0" y="108.0" font-size="14" fill="#15803d" text-anchor="middle" font-weight="bold">gradient zone — tracks the spread</text>
</svg>