<svg xmlns="http://www.w3.org/2000/svg" viewBox="0 0 1000 560" font-family="Helvetica,Arial,sans-serif">
<text x="500.0" y="38.0" font-size="25" fill="#1a4a7a" text-anchor="middle" font-weight="bold">The loss targets a BAND of the ROC, not the whole curve</text>
<path d="M 130.0 470.0 L 130.0 470.0 L 133.8 396.6 L 137.7 378.4 L 141.6 365.7 L 145.4 355.6 L 149.2 347.1 L 153.1 339.8 L 156.9 333.2 L 160.8 327.2 L 164.7 321.7 L 168.5 316.6 L 172.3 311.9 L 176.2 307.4 L 180.1 303.2 L 183.9 299.2 L 187.8 295.4 L 191.6 291.7 L 195.4 288.3 L 199.3 284.9 L 203.2 281.7 L 207.0 278.5 L 210.8 275.5 L 214.7 272.6 L 218.6 269.8 L 222.4 267.0 L 226.2 264.4 L 230.1 261.8 L 233.9 259.3 L 237.8 256.8 L 241.6 254.4 L 245.5 252.0 L 249.3 249.7 L 253.2 247.5 L 257.1 245.3 L 260.9 243.1 L 264.8 241.0 L 268.6 238.9 L 272.4 236.9 L 276.3 234.9 L 280.1 232.9 L 284.0 231.0 L 287.9 229.1 L 291.7 227.2 L 295.6 225.4 L 299.4 223.6 L 303.2 221.8 L 307.1 220.1 L 310.9 218.3 L 314.8 216.6 L 318.6 215.0 L 322.5 213.3 L 326.4 211.7 L 330.2 210.1 L 334.0 208.5 L 337.9 206.9 L 341.8 205.4 L 345.6 203.8 L 349.4 202.3 L 353.3 200.8 L 357.1 199.4 L 361.0 197.9 L 361.0 470.0 Z" fill="#15803d" fill-opacity="0.28" stroke="none"/>
<rect x="130.0" y="70.0" width="231.0" height="400.0" rx="0" fill="#f4d35e" stroke="none" stroke-width="1.5" fill-opacity="0.2"/>
<line x1="130.0" y1="70.0" x2="130.0" y2="470.0" stroke="#333" stroke-width="2"/>
<line x1="130.0" y1="470.0" x2="900.0" y2="470.0" stroke="#333" stroke-width="2"/>
<line x1="130.0" y1="470.0" x2="900.0" y2="70.0" stroke="#d1d5db" stroke-width="1.5" stroke-dasharray="5,5"/>
<path d="M 130.0 470.0 L 137.7 378.4 L 145.4 355.6 L 153.1 339.8 L 160.8 327.2 L 168.5 316.6 L 176.2 307.4 L 183.9 299.2 L 191.6 291.7 L 199.3 284.9 L 207.0 278.5 L 214.7 272.6 L 222.4 267.0 L 230.1 261.8 L 237.8 256.8 L 245.5 252.0 L 253.2 247.5 L 260.9 243.1 L 268.6 238.9 L 276.3 234.9 L 284.0 231.0 L 291.7 227.2 L 299.4 223.6 L 307.1 220.1 L 314.8 216.6 L 322.5 213.3 L 330.2 210.1 L 337.9 206.9 L 345.6 203.8 L 353.3 200.8 L 361.0 197.9 L 368.7 195.0 L 376.4 192.2 L 384.1 189.5 L 391.8 186.8 L 399.5 184.1 L 407.2 181.5 L 414.9 179.0 L 422.6 176.5 L 430.3 174.1 L 438.0 171.7 L 445.7 169.3 L 453.4 167.0 L 461.1 164.7 L 468.8 162.4 L 476.5 160.2 L 484.2 158.0 L 491.9 155.9 L 499.6 153.7 L 507.3 151.6 L 515.0 149.6 L 522.7 147.5 L 530.4 145.5 L 538.1 143.5 L 545.8 141.6 L 553.5 139.6 L 561.2 137.7 L 568.9 135.9 L 576.6 134.0 L 584.3 132.1 L 592.0 130.3 L 599.7 128.5 L 607.4 126.7 L 615.1 125.0 L 622.8 123.2 L 630.5 121.5 L 638.2 119.8 L 645.9 118.1 L 653.6 116.4 L 661.3 114.8 L 669.0 113.1 L 676.7 111.5 L 684.4 109.9 L 692.1 108.3 L 699.8 106.7 L 707.5 105.2 L 715.2 103.6 L 722.9 102.1 L 730.6 100.6 L 738.3 99.1 L 746.0 97.6 L 753.7 96.1 L 761.4 94.6 L 769.1 93.2 L 776.8 91.7 L 784.5 90.3 L 792.2 88.8 L 799.9 87.4 L 807.6 86.0 L 815.3 84.6 L 823.0 83.3 L 830.7 81.9 L 838.4 80.5 L 846.1 79.2 L 853.8 77.8 L 861.5 76.5 L 869.2 75.2 L 876.9 73.9 L 884.6 72.6 L 892.3 71.3 L 900.0 70.0" fill="none" stroke="#1a4a7a" stroke-width="3.5"/>
<line x1="130.0" y1="70.0" x2="130.0" y2="470.0" stroke="#b91c1c" stroke-width="1.8" stroke-dasharray="4,3"/>
<text x="130.0" y="60.0" font-size="18" fill="#b91c1c" text-anchor="middle" font-weight="bold">α = 0</text>
<line x1="361.0" y1="70.0" x2="361.0" y2="470.0" stroke="#b91c1c" stroke-width="1.8" stroke-dasharray="4,3"/>
<text x="361.0" y="60.0" font-size="18" fill="#b91c1c" text-anchor="middle" font-weight="bold">β = budget</text>
<text x="515.0" y="512.0" font-size="20" fill="#333" text-anchor="middle" font-weight="normal">False-positive rate (FPR)</text>
<text x="78" y="270.0" font-size="20" fill="#333" text-anchor="middle" transform="rotate(-90 78 270.0)">True-positive rate (recall)</text>
<text x="245.5" y="322.0" font-size="19" fill="#15803d" text-anchor="middle" font-weight="bold">partial AUC</text>
<text x="245.5" y="344.0" font-size="19" fill="#15803d" text-anchor="middle" font-weight="bold">over the band</text>
<text x="750.0" y="110.0" font-size="17" fill="#6b7280" text-anchor="middle" font-weight="normal" font-style="italic">whole-curve AUC</text>
<text x="750.0" y="132.0" font-size="15" fill="#6b7280" text-anchor="middle" font-weight="normal" font-style="italic">(what CE / AP chase)</text>
<text x="500.0" y="542.0" font-size="18" fill="#333" text-anchor="middle" font-weight="normal" font-family="SFMono-Regular,Menlo,monospace">normalized pAUC over [α, β]  =  P( s_pos &gt; s_neg | negative in the band )</text>
</svg>